<svg width="161" height="161" viewBox="0 0 161 161" fill="none" xmlns="http://www.w3.org/2000/svg">
<rect width="161" height="161" rx="37.7344" fill="url(#paint0_linear_2_192)"/>
<rect width="161" height="161" rx="37.7344" fill="url(#paint1_linear_2_192)"/>
<rect width="161" height="161" rx="37.7344" fill="url(#paint2_linear_2_192)"/>
<g clip-path="url(#clip0_2_192)">
<path d="M80.5 35.132C95.2768 35.132 97.0293 35.1873 102.868 35.4548C117.866 36.1374 124.872 43.2537 125.554 58.1411C125.822 63.9753 125.873 65.7278 125.873 80.5046C125.873 95.286 125.817 97.0339 125.554 102.868C124.867 117.742 117.88 124.872 102.868 125.554C97.0293 125.822 95.286 125.877 80.5 125.877C65.7232 125.877 63.9707 125.822 58.1365 125.554C43.1015 124.867 36.1328 117.719 35.4502 102.863C35.1827 97.0293 35.1273 95.2814 35.1273 80.5C35.1273 65.7232 35.1873 63.9753 35.4502 58.1365C36.1374 43.2537 43.1245 36.1328 58.1365 35.4502C63.9753 35.1873 65.7232 35.132 80.5 35.132V35.132ZM80.5 25.1563C65.4696 25.1563 63.5879 25.2208 57.6845 25.4883C37.5855 26.4107 26.4153 37.5625 25.4929 57.6799C25.2208 63.5879 25.1562 65.4696 25.1562 80.5C25.1562 95.5304 25.2208 97.4167 25.4883 103.32C26.4107 123.419 37.5625 134.589 57.6799 135.512C63.5879 135.779 65.4696 135.844 80.5 135.844C95.5304 135.844 97.4167 135.779 103.32 135.512C123.401 134.589 134.599 123.438 135.507 103.32C135.779 97.4167 135.844 95.5304 135.844 80.5C135.844 65.4696 135.779 63.5879 135.512 57.6845C134.608 37.604 123.442 26.4153 103.325 25.4929C97.4167 25.2208 95.5304 25.1562 80.5 25.1562V25.1563ZM80.5 52.081C64.8054 52.081 52.081 64.8054 52.081 80.5C52.081 96.1946 64.8054 108.924 80.5 108.924C96.1946 108.924 108.919 96.1992 108.919 80.5C108.919 64.8054 96.1946 52.081 80.5 52.081ZM80.5 98.9479C70.3121 98.9479 62.0521 90.6925 62.0521 80.5C62.0521 70.3121 70.3121 62.0521 80.5 62.0521C90.6879 62.0521 98.9479 70.3121 98.9479 80.5C98.9479 90.6925 90.6879 98.9479 80.5 98.9479ZM110.044 44.319C106.373 44.319 103.398 47.2937 103.398 50.9603C103.398 54.6268 106.373 57.6015 110.044 57.6015C113.711 57.6015 116.681 54.6268 116.681 50.9603C116.681 47.2937 113.711 44.319 110.044 44.319Z" fill="white"/>
</g>
<defs>
<linearGradient id="paint0_linear_2_192" x1="142.762" y1="6.28905" x2="25.7852" y2="157.855" gradientUnits="userSpaceOnUse">
<stop stop-color="#8940BF"/>
<stop offset="0.494792" stop-color="#E5365F"/>
<stop offset="0.63954" stop-color="#EC6937"/>
<stop offset="1" stop-color="#F9DB81"/>
</linearGradient>
<linearGradient id="paint1_linear_2_192" x1="80.5" y1="-13.8359" x2="141.504" y2="204.395" gradientUnits="userSpaceOnUse">
<stop stop-color="#4B64D3"/>
<stop offset="0.16707" stop-color="#B9328E"/>
<stop offset="0.315099" stop-color="#B9328E" stop-opacity="0"/>
</linearGradient>
<linearGradient id="paint2_linear_2_192" x1="164.145" y1="116.348" x2="108.172" y2="105.027" gradientUnits="userSpaceOnUse">
<stop stop-color="#DD3073"/>
<stop offset="1" stop-color="#DE2F6D" stop-opacity="0"/>
</linearGradient>
<clipPath id="clip0_2_192">
<rect width="110.688" height="110.688" fill="white" transform="translate(25.1562 25.1562)"/>
</clipPath>
</defs>
</svg>
