<svg width="82" height="41" viewBox="0 0 82 41" fill="none" xmlns="http://www.w3.org/2000/svg">
<g clip-path="url(#clip0_2_74)">
<path d="M20.116 17.1436C19.5282 17.1436 18.9536 17.3179 18.4649 17.6444C17.9761 17.971 17.5952 18.4352 17.3702 18.9782C17.1453 19.5213 17.0864 20.1189 17.2011 20.6954C17.3158 21.2719 17.5988 21.8015 18.0145 22.2171C18.4301 22.6328 18.9597 22.9158 19.5362 23.0305C20.1127 23.1452 20.7103 23.0863 21.2534 22.8614C21.7964 22.6364 22.2606 22.2555 22.5872 21.7667C22.9137 21.278 23.088 20.7034 23.088 20.1156C23.088 19.3274 22.7749 18.5714 22.2175 18.014C21.6602 17.4567 20.9042 17.1436 20.116 17.1436ZM9.53274 20.1156C9.53274 17.3087 10.6478 14.6168 12.6325 12.6321C14.6173 10.6473 17.3092 9.5323 20.116 9.5323V6.52404C12.6135 6.52404 6.52448 12.6131 6.52448 20.1156C6.52448 27.6181 12.6135 33.7071 20.116 33.7071V30.6989C17.3092 30.6989 14.6173 29.5838 12.6325 27.5991C10.6478 25.6143 9.53274 22.9224 9.53274 20.1156V20.1156ZM20.116 23.885C19.3705 23.885 18.6417 23.6639 18.0219 23.2497C17.402 22.8355 16.9189 22.2468 16.6336 21.5581C16.3483 20.8693 16.2736 20.1114 16.4191 19.3802C16.5645 18.649 16.9235 17.9774 17.4507 17.4502C17.9778 16.9231 18.6495 16.5641 19.3806 16.4186C20.1118 16.2732 20.8697 16.3478 21.5585 16.6331C22.2473 16.9184 22.836 17.4016 23.2501 18.0214C23.6643 18.6413 23.8854 19.3701 23.8854 20.1156H26.8937C26.8937 18.7751 26.4962 17.4647 25.7514 16.3501C25.0067 15.2355 23.9482 14.3668 22.7097 13.8539C21.4713 13.3409 20.1085 13.2066 18.7938 13.4682C17.479 13.7297 16.2714 14.3752 15.3235 15.3231C14.3756 16.2709 13.7301 17.4786 13.4686 18.7933C13.2071 20.1081 13.3413 21.4708 13.8543 22.7093C14.3673 23.9477 15.236 25.0063 16.3506 25.751C17.4651 26.4957 18.7755 26.8932 20.116 26.8932V23.885ZM20.116 9.5323V12.5406C22.125 12.5406 24.0518 13.3386 25.4724 14.7592C26.893 16.1798 27.691 18.1066 27.691 20.1156C27.691 22.1246 26.893 24.0513 25.4724 25.4719C24.0518 26.8925 22.125 27.6906 20.116 27.6906V30.6989C22.9229 30.6989 25.6148 29.5838 27.5995 27.5991C29.5843 25.6143 30.6993 22.9224 30.6993 20.1156C30.6993 17.3087 29.5843 14.6168 27.5995 12.6321C25.6148 10.6473 22.9229 9.5323 20.116 9.5323V9.5323ZM36.9732 25.0397H36.963L35.8706 23.0151H35.2392L36.6832 25.6457L36.6629 25.682C36.523 25.9661 36.3519 26.1582 36.0054 26.1582C35.9038 26.1572 35.8027 26.1433 35.7046 26.1169V26.6134C35.8231 26.6611 35.9502 26.6841 36.0779 26.6808C36.5853 26.6808 36.9318 26.3858 37.1805 25.8371L38.449 23.0151H37.864L36.9732 25.0397ZM41.4971 24.5424H39.7103V23.0151H39.1442V26.6395H39.7132V25.06H41.5V26.6395H42.0691V23.0151H41.5L41.4971 24.5424ZM43.7059 25.7073H43.6906V23.0151H43.1209V26.6395H43.6384L45.621 23.9473H45.6319V26.6395H46.2009V23.0151H45.6833L43.7059 25.7073ZM49.3433 24.6925C49.4796 24.6286 49.5947 24.5267 49.6745 24.399C49.7544 24.2713 49.7956 24.1233 49.7934 23.9727C49.7934 23.4551 49.3534 23.0151 48.7061 23.0151H47.2563V26.6395H48.7851C49.4846 26.6395 49.9761 26.1473 49.9761 25.5783C49.9746 25.102 49.6071 24.7911 49.3433 24.6925ZM47.8261 23.5073H48.7061C49.0171 23.5073 49.2237 23.7139 49.2237 23.9988C49.2237 24.2837 49.0171 24.491 48.7061 24.491H47.8261V23.5073ZM48.7851 26.1473H47.8261V24.9571H48.7851C49.1475 24.9571 49.4063 25.2159 49.4063 25.5522C49.4063 25.8885 49.1475 26.1473 48.7851 26.1473ZM51.3947 25.0187H52.9742V24.5011H51.3903V23.5327H53.3838V23.0151H50.8213V26.6395H53.4359V26.122H51.3903L51.3947 25.0187ZM55.6635 23.0151H54.2138V26.6395H54.7828V25.3449H55.6635C56.3623 25.3449 56.8799 24.8273 56.8799 24.18C56.8799 23.5327 56.358 23.0151 55.6592 23.0151H55.6635ZM55.6635 24.8273H54.7784V23.5327H55.6592C55.8308 23.5327 55.9955 23.6009 56.1169 23.7223C56.2383 23.8437 56.3065 24.0083 56.3065 24.18C56.3065 24.3517 56.2383 24.5163 56.1169 24.6377C55.9955 24.7591 55.8308 24.8273 55.6592 24.8273H55.6635ZM59.4039 26.1734C59.0469 26.1734 58.7045 26.0316 58.4521 25.7792C58.1996 25.5267 58.0578 25.1843 58.0578 24.8273C58.0578 24.4703 58.1996 24.1279 58.4521 23.8755C58.7045 23.623 59.0469 23.4812 59.4039 23.4812C59.6097 23.4786 59.8134 23.5224 59.9999 23.6093C60.1864 23.6963 60.3508 23.8242 60.4811 23.9836L60.8798 23.6574C60.7007 23.4394 60.4754 23.264 60.2201 23.144C59.9648 23.024 59.686 22.9624 59.4039 22.9636C58.3166 22.9636 57.488 23.7915 57.488 24.8273C57.488 25.8632 58.3166 26.691 59.4039 26.691C59.691 26.6911 59.9745 26.6276 60.2341 26.505C60.4937 26.3824 60.7229 26.2038 60.9051 25.9821L60.5065 25.6559C60.2904 25.8936 59.9584 26.1734 59.3996 26.1734H59.4039ZM62.2208 25.7073H62.2049V23.0151H61.6351V26.6395H62.1534L64.1359 23.9473H64.1468V26.6395H64.7158V23.0151H64.1983L62.2208 25.7073ZM65.4197 23.5327H66.507V26.6395H67.0768V23.5327H68.1641V23.0151H65.4154L65.4197 23.5327ZM69.4341 25.0187H71.0136V24.5011H69.4298V23.5327H71.4232V23.0151H68.86V26.6395H71.4739V26.122H69.4298L69.4341 25.0187ZM72.0379 23.0151V23.5327H73.1252V26.6395H73.695V23.5327H74.7823V23.0151H72.0379ZM39.4182 16.5637L35.896 12.7776H35.3385V20.1156H36.8833V15.9838L39.1978 18.4121H39.6327L41.9473 15.9823V20.1141H43.492V12.7805H42.9353L39.4182 16.5637ZM46.464 17.2219V12.8668H44.92V20.2018H45.5173L50.0174 15.7583V20.1156H51.5614V12.7805H50.9641L46.464 17.2219ZM56.3319 14.186C57.1343 14.186 57.8498 14.621 58.3195 15.3343L59.4068 14.2832C59.0554 13.7958 58.5935 13.3986 58.0591 13.1241C57.5246 12.8495 56.9327 12.7054 56.3319 12.7037C54.2456 12.7037 52.49 14.3491 52.49 16.4883C52.49 18.6274 54.2493 20.2729 56.3319 20.2729C56.9327 20.2711 57.5246 20.127 58.0591 19.8525C58.5935 19.578 59.0554 19.1807 59.4068 18.6934L58.3195 17.6423C57.8498 18.3556 57.1343 18.7905 56.3319 18.7905C55.0858 18.7905 54.0709 17.8351 54.0709 16.4883C54.0709 15.1414 55.0814 14.1889 56.3275 14.1889L56.3319 14.186ZM61.9388 17.2219V12.8668H60.3897V20.2018H60.9878L65.4936 15.7583V20.1156H67.0384V12.7805H66.4403L61.9388 17.2219ZM71.8066 18.7905C70.5598 18.7905 69.5457 17.8351 69.5457 16.4883C69.5457 15.1414 70.5606 14.186 71.8066 14.186C72.6091 14.186 73.3245 14.621 73.7935 15.3343L74.8809 14.2832C74.5294 13.7959 74.0675 13.3987 73.533 13.1242C72.9986 12.8497 72.4067 12.7056 71.8059 12.7037C69.719 12.7037 67.9597 14.3491 67.9597 16.4883C67.9597 18.6274 69.719 20.2729 71.8059 20.2729C72.4065 20.2713 72.9982 20.1276 73.5326 19.8536C74.067 19.5796 74.529 19.183 74.8809 18.6963L73.7935 17.6452C73.3202 18.3585 72.6047 18.7934 71.8023 18.7934L71.8066 18.7905Z" fill="white"/>
</g>
<defs>
<clipPath id="clip0_2_74">
<rect width="81.4007" height="40.231" fill="white"/>
</clipPath>
</defs>
</svg>
